<mxfile host="drawio-plugin" modified="2023-02-17T14:23:34.418Z" agent="5.0 (Windows NT 6.2; Win64; x64) AppleWebKit/537.36 (KHTML, like Gecko) Chrome/104.0.5112.102 Safari/537.36" etag="ELfdI45PDn5cvFa1mtqP" version="20.5.3" type="embed"><diagram id="PnNwpbYG1peqZBWpXUGm" name="Page-1"><mxGraphModel dx="3272" dy="1105" grid="1" gridSize="10" guides="1" tooltips="1" connect="1" arrows="1" fold="1" page="1" pageScale="1" pageWidth="827" pageHeight="1169" math="0" shadow="0"><root><mxCell id="0"/><mxCell id="1" parent="0"/><mxCell id="12" value="&lt;b&gt;FINAL STATUS&lt;br&gt;(COMPLETED&amp;nbsp;&lt;/b&gt;&lt;b style=&quot;border-color: var(--border-color);&quot;&gt;/ CANCELLED&lt;/b&gt;&lt;b&gt;&lt;br&gt;/ TERMINATED)&lt;/b&gt;" style="rounded=1;whiteSpace=wrap;html=1;fillColor=#fad7ac;strokeColor=#b46504;strokeWidth=3;" parent="1" vertex="1"><mxGeometry x="-498" y="840" width="170" height="90" as="geometry"/></mxCell><mxCell id="13" value="&lt;b&gt;CLAIMED&lt;/b&gt;" style="rounded=1;whiteSpace=wrap;html=1;fillColor=#fad7ac;strokeColor=#b46504;strokeWidth=3;" parent="1" vertex="1"><mxGeometry x="-668" y="480" width="170" height="90" as="geometry"/></mxCell><mxCell id="15" value="&lt;b&gt;READY&lt;/b&gt;" style="rounded=1;whiteSpace=wrap;html=1;fillColor=#fad7ac;strokeColor=#b46504;strokeWidth=3;" parent="1" vertex="1"><mxGeometry x="-328" y="480" width="170" height="90" as="geometry"/></mxCell><mxCell id="cENML1C-xsDJPCTjv6uj-152" value="READY_FOR_REVIEW" style="rounded=1;whiteSpace=wrap;html=1;fillColor=#fad7ac;strokeColor=#b46504;strokeWidth=3;" parent="1" vertex="1"><mxGeometry x="-918" y="280" width="170" height="90" as="geometry"/></mxCell><mxCell id="cENML1C-xsDJPCTjv6uj-153" value="IN_REVIEW" style="rounded=1;whiteSpace=wrap;html=1;fillColor=#fad7ac;strokeColor=#b46504;strokeWidth=3;" parent="1" vertex="1"><mxGeometry x="-70" y="280" width="170" height="90" as="geometry"/></mxCell><mxCell id="cENML1C-xsDJPCTjv6uj-155" value="" style="endArrow=classic;html=1;rounded=0;exitX=1;exitY=0.25;exitDx=0;exitDy=0;entryX=0;entryY=0.25;entryDx=0;entryDy=0;" parent="1" source="cENML1C-xsDJPCTjv6uj-152" target="cENML1C-xsDJPCTjv6uj-153" edge="1"><mxGeometry width="50" height="50" relative="1" as="geometry"><mxPoint x="-520" y="550" as="sourcePoint"/><mxPoint x="-470" y="500" as="targetPoint"/></mxGeometry></mxCell><mxCell id="cENML1C-xsDJPCTjv6uj-157" value="claim()" style="edgeLabel;html=1;align=center;verticalAlign=middle;resizable=0;points=[];" parent="cENML1C-xsDJPCTjv6uj-155" vertex="1" connectable="0"><mxGeometry x="-0.0767" y="-1" relative="1" as="geometry"><mxPoint as="offset"/></mxGeometry></mxCell><mxCell id="cENML1C-xsDJPCTjv6uj-160" value="" style="endArrow=classic;html=1;rounded=0;entryX=1;entryY=0.75;entryDx=0;entryDy=0;exitX=0;exitY=0.75;exitDx=0;exitDy=0;" parent="1" source="cENML1C-xsDJPCTjv6uj-153" target="cENML1C-xsDJPCTjv6uj-152" edge="1"><mxGeometry width="50" height="50" relative="1" as="geometry"><mxPoint x="-280" y="420" as="sourcePoint"/><mxPoint x="-230" y="370" as="targetPoint"/></mxGeometry></mxCell><mxCell id="cENML1C-xsDJPCTjv6uj-161" value="transfer()&lt;br&gt;cancelClaim()" style="edgeLabel;html=1;align=center;verticalAlign=middle;resizable=0;points=[];" parent="cENML1C-xsDJPCTjv6uj-160" vertex="1" connectable="0"><mxGeometry x="0.5032" y="3" relative="1" as="geometry"><mxPoint as="offset"/></mxGeometry></mxCell><mxCell id="cENML1C-xsDJPCTjv6uj-162" value="" style="endArrow=classic;html=1;rounded=0;exitX=0.5;exitY=1;exitDx=0;exitDy=0;entryX=0;entryY=0;entryDx=0;entryDy=0;" parent="1" source="cENML1C-xsDJPCTjv6uj-152" target="12" edge="1"><mxGeometry width="50" height="50" relative="1" as="geometry"><mxPoint x="-540" y="470" as="sourcePoint"/><mxPoint x="-490" y="420" as="targetPoint"/></mxGeometry></mxCell><mxCell id="cENML1C-xsDJPCTjv6uj-163" value="forceComplete()&lt;br&gt;cancel()&lt;br&gt;terminate()" style="edgeLabel;html=1;align=center;verticalAlign=middle;resizable=0;points=[];" parent="cENML1C-xsDJPCTjv6uj-162" vertex="1" connectable="0"><mxGeometry x="0.255" y="-3" relative="1" as="geometry"><mxPoint as="offset"/></mxGeometry></mxCell><mxCell id="cENML1C-xsDJPCTjv6uj-168" value="" style="endArrow=classic;html=1;rounded=0;entryX=1;entryY=0;entryDx=0;entryDy=0;exitX=0.5;exitY=1;exitDx=0;exitDy=0;" parent="1" source="cENML1C-xsDJPCTjv6uj-153" target="12" edge="1"><mxGeometry width="50" height="50" relative="1" as="geometry"><mxPoint x="-695" y="360" as="sourcePoint"/><mxPoint x="-427.5607476635514" y="850" as="targetPoint"/></mxGeometry></mxCell><mxCell id="cENML1C-xsDJPCTjv6uj-169" value="forceComplete()&lt;br&gt;cancel()&lt;br&gt;terminate()" style="edgeLabel;html=1;align=center;verticalAlign=middle;resizable=0;points=[];" parent="cENML1C-xsDJPCTjv6uj-168" vertex="1" connectable="0"><mxGeometry x="0.255" y="-3" relative="1" as="geometry"><mxPoint as="offset"/></mxGeometry></mxCell><mxCell id="cENML1C-xsDJPCTjv6uj-170" value="" style="endArrow=classic;html=1;rounded=0;exitX=0;exitY=1;exitDx=0;exitDy=0;entryX=1;entryY=0;entryDx=0;entryDy=0;" parent="1" source="cENML1C-xsDJPCTjv6uj-153" target="15" edge="1"><mxGeometry width="50" height="50" relative="1" as="geometry"><mxPoint x="-420" y="470" as="sourcePoint"/><mxPoint x="-370" y="420" as="targetPoint"/></mxGeometry></mxCell><mxCell id="cENML1C-xsDJPCTjv6uj-171" value="requestChanges()" style="edgeLabel;html=1;align=center;verticalAlign=middle;resizable=0;points=[];" parent="cENML1C-xsDJPCTjv6uj-170" vertex="1" connectable="0"><mxGeometry x="-0.324" y="1" relative="1" as="geometry"><mxPoint as="offset"/></mxGeometry></mxCell><mxCell id="cENML1C-xsDJPCTjv6uj-176" value="" style="endArrow=classic;html=1;rounded=0;" parent="1" edge="1"><mxGeometry width="50" height="50" relative="1" as="geometry"><mxPoint x="-240" y="400" as="sourcePoint"/><mxPoint x="-240" y="480" as="targetPoint"/></mxGeometry></mxCell><mxCell id="cENML1C-xsDJPCTjv6uj-177" value="create()" style="edgeLabel;html=1;align=center;verticalAlign=middle;resizable=0;points=[];" parent="cENML1C-xsDJPCTjv6uj-176" vertex="1" connectable="0"><mxGeometry x="-0.232" relative="1" as="geometry"><mxPoint x="-1" as="offset"/></mxGeometry></mxCell><mxCell id="cENML1C-xsDJPCTjv6uj-178" value="" style="endArrow=classic;html=1;rounded=0;exitX=0.5;exitY=1;exitDx=0;exitDy=0;entryX=0.75;entryY=0;entryDx=0;entryDy=0;" parent="1" source="15" target="12" edge="1"><mxGeometry width="50" height="50" relative="1" as="geometry"><mxPoint x="-80.22477064220175" y="350" as="sourcePoint"/><mxPoint x="-360.5" y="850" as="targetPoint"/></mxGeometry></mxCell><mxCell id="cENML1C-xsDJPCTjv6uj-179" value="forceComplete()&lt;br&gt;cancel()&lt;br&gt;terminate()" style="edgeLabel;html=1;align=center;verticalAlign=middle;resizable=0;points=[];" parent="cENML1C-xsDJPCTjv6uj-178" vertex="1" connectable="0"><mxGeometry x="0.255" y="-3" relative="1" as="geometry"><mxPoint as="offset"/></mxGeometry></mxCell><mxCell id="cENML1C-xsDJPCTjv6uj-180" value="" style="endArrow=classic;html=1;rounded=0;exitX=0;exitY=0.25;exitDx=0;exitDy=0;entryX=1;entryY=0.25;entryDx=0;entryDy=0;" parent="1" source="15" target="13" edge="1"><mxGeometry width="50" height="50" relative="1" as="geometry"><mxPoint x="-510" y="580" as="sourcePoint"/><mxPoint x="-460" y="530" as="targetPoint"/></mxGeometry></mxCell><mxCell id="cENML1C-xsDJPCTjv6uj-181" value="claim()" style="edgeLabel;html=1;align=center;verticalAlign=middle;resizable=0;points=[];" parent="cENML1C-xsDJPCTjv6uj-180" vertex="1" connectable="0"><mxGeometry x="-0.4254" relative="1" as="geometry"><mxPoint as="offset"/></mxGeometry></mxCell><mxCell id="cENML1C-xsDJPCTjv6uj-182" value="" style="endArrow=classic;html=1;rounded=0;exitX=1;exitY=0.75;exitDx=0;exitDy=0;entryX=0;entryY=0.75;entryDx=0;entryDy=0;" parent="1" source="13" target="15" edge="1"><mxGeometry width="50" height="50" relative="1" as="geometry"><mxPoint x="-110" y="780" as="sourcePoint"/><mxPoint x="-60" y="730" as="targetPoint"/></mxGeometry></mxCell><mxCell id="cENML1C-xsDJPCTjv6uj-183" value="transfer()&lt;br&gt;cancelClaim()" style="edgeLabel;html=1;align=center;verticalAlign=middle;resizable=0;points=[];" parent="cENML1C-xsDJPCTjv6uj-182" vertex="1" connectable="0"><mxGeometry x="0.1957" y="2" relative="1" as="geometry"><mxPoint as="offset"/></mxGeometry></mxCell><mxCell id="cENML1C-xsDJPCTjv6uj-184" value="" style="endArrow=classic;html=1;rounded=0;exitX=0.5;exitY=1;exitDx=0;exitDy=0;entryX=0.25;entryY=0;entryDx=0;entryDy=0;" parent="1" source="13" target="12" edge="1"><mxGeometry width="50" height="50" relative="1" as="geometry"><mxPoint x="125" y="530" as="sourcePoint"/><mxPoint x="-337.9041095890411" y="850" as="targetPoint"/></mxGeometry></mxCell><mxCell id="cENML1C-xsDJPCTjv6uj-185" value="complete()&lt;br&gt;cancel()&lt;br&gt;terminate()" style="edgeLabel;html=1;align=center;verticalAlign=middle;resizable=0;points=[];" parent="cENML1C-xsDJPCTjv6uj-184" vertex="1" connectable="0"><mxGeometry x="0.255" y="-3" relative="1" as="geometry"><mxPoint as="offset"/></mxGeometry></mxCell><mxCell id="cENML1C-xsDJPCTjv6uj-188" value="requestReview()" style="endArrow=classic;html=1;rounded=0;exitX=0;exitY=0;exitDx=0;exitDy=0;entryX=1;entryY=1;entryDx=0;entryDy=0;" parent="1" source="13" target="cENML1C-xsDJPCTjv6uj-152" edge="1"><mxGeometry width="50" height="50" relative="1" as="geometry"><mxPoint x="-480" y="500" as="sourcePoint"/><mxPoint x="-430" y="450" as="targetPoint"/></mxGeometry></mxCell></root></mxGraphModel></diagram></mxfile>